<svg width="125" height="87" viewBox="0 0 125 87" fill="none" xmlns="http://www.w3.org/2000/svg">
<path d="M25.4958 46H15.9358V42.52L11.4158 46.08C10.8824 46.2933 10.2158 46.4 9.41578 46.4C6.77578 46.4 4.86911 45.76 3.69578 44.48C2.52245 43.1733 1.93578 41.6133 1.93578 39.8C1.93578 38.76 2.25578 37.7333 2.89578 36.72C3.53578 35.7067 4.44245 34.7733 5.61578 33.92H15.9358V33.76C15.9358 32.3733 15.5491 31.3467 14.7758 30.68C14.0291 29.9867 13.0291 29.64 11.7758 29.64C9.93578 29.64 7.36245 30.28 4.05578 31.56L2.85578 29.08L8.37578 24.64C9.78912 24.1867 11.4558 23.96 13.3758 23.96C16.5224 23.96 18.9624 24.6667 20.6958 26.08C22.4558 27.4933 23.3358 29.5467 23.3358 32.24V41.68L26.9358 43.08L25.4958 46ZM11.6958 40.4C12.9491 40.4 14.3624 39.8933 15.9358 38.88V36.84H9.65578C9.36245 37.32 9.21578 37.84 9.21578 38.4C9.21578 39.0133 9.42912 39.5067 9.85578 39.88C10.3091 40.2267 10.9224 40.4 11.6958 40.4ZM55.5652 45.96H46.0052V33.4C46.0052 32.2 45.8185 31.3467 45.4452 30.84C45.0985 30.3333 44.4852 30.08 43.6052 30.08C42.3518 30.08 41.0852 30.44 39.8052 31.16V41.88L43.4052 43.04L41.9652 45.96H28.8452V43.4L32.4052 40.36V31.96L28.8452 29.68V27.12L37.6452 23.6L39.2452 28.08L43.9652 24.28C44.6852 24.0667 45.5252 23.96 46.4852 23.96C48.5918 23.96 50.2718 24.52 51.5252 25.64C52.7785 26.7333 53.4052 28.2267 53.4052 30.12V41.92L57.0052 43.04L55.5652 45.96ZM79.1233 28.6C79.4966 29.4 79.6833 30.2267 79.6833 31.08C79.6833 32.68 78.9899 34.2267 77.6033 35.72C76.2433 37.2133 74.5499 38.3467 72.5233 39.12C71.8033 39.9733 71.4433 40.7733 71.4433 41.52C71.4433 41.8933 71.7233 42.2667 72.2833 42.64C72.8699 42.9867 73.7633 43.4267 74.9633 43.96C76.7766 44.7867 78.1633 45.5467 79.1233 46.24C80.1099 46.9333 80.6033 47.7333 80.6033 48.64C80.6033 49.4933 80.0566 50.56 78.9633 51.84C77.8966 53.12 76.5633 54.2267 74.9633 55.16C73.3633 56.12 71.8033 56.6 70.2833 56.6C68.6033 56.6 66.6166 56.3467 64.3233 55.84C62.0299 55.3333 60.1233 54.8267 58.6033 54.32V46.88H61.4033C62.6299 48.6133 63.8833 49.92 65.1633 50.8C66.4699 51.7067 67.9366 52.16 69.5633 52.16C70.3899 52.16 71.0833 52 71.6433 51.68C72.2033 51.3867 72.4833 51.0533 72.4833 50.68C72.4833 50.0933 72.1366 49.56 71.4433 49.08C70.7766 48.6267 69.7499 48.0933 68.3633 47.48C66.8433 46.7867 65.6833 46.1733 64.8833 45.64C64.1099 45.08 63.7233 44.4267 63.7233 43.68C63.7233 43.04 64.2299 42.3867 65.2433 41.72C66.2833 41.0533 67.5099 40.4667 68.9233 39.96C68.6833 39.9867 68.3233 40 67.8433 40C66.1899 40 64.6566 39.68 63.2433 39.04C61.8299 38.3733 60.7099 37.5067 59.8833 36.44C59.0833 35.3467 58.6833 34.1867 58.6833 32.96C58.6833 31.44 59.2699 29.9867 60.4433 28.6C61.6166 27.2133 63.1233 26.0933 64.9633 25.24C66.8033 24.3867 68.6699 23.96 70.5633 23.96C72.7766 23.96 74.7099 24.4933 76.3633 25.56H83.0833V28.6H79.1233ZM65.8833 31.08C65.8833 32.2533 66.2699 33.2133 67.0433 33.96C67.8433 34.7067 68.8699 35.08 70.1233 35.08C71.7233 35.08 72.5233 34.3733 72.5233 32.96C72.5233 31.76 72.1233 30.8133 71.3233 30.12C70.5499 29.4 69.5099 29.04 68.2033 29.04C66.6566 29.04 65.8833 29.72 65.8833 31.08ZM98.273 23.96C101.153 23.96 103.38 25.0533 104.953 27.24C106.553 29.4 107.326 32.4533 107.273 36.4H92.993C93.2863 37.8133 93.833 38.9467 94.633 39.8C95.433 40.6267 96.473 41.04 97.753 41.04C99.6463 41.04 102.406 40.2267 106.033 38.6L107.233 41.08L101.473 45.72C99.793 46.1733 97.7796 46.4 95.433 46.4C93.433 46.4 91.633 45.9467 90.033 45.04C88.433 44.1067 87.1796 42.84 86.273 41.24C85.393 39.64 84.953 37.8533 84.953 35.88C84.953 33.7467 85.6463 31.7733 87.033 29.96C88.4196 28.12 90.153 26.6667 92.233 25.6C94.313 24.5067 96.3263 23.96 98.273 23.96ZM96.113 28.96C95.0196 28.96 94.193 29.3333 93.633 30.08C93.0996 30.8 92.8063 31.92 92.753 33.44H99.873C99.713 31.92 99.353 30.8 98.793 30.08C98.233 29.3333 97.3396 28.96 96.113 28.96ZM123.001 46H109.881V43.44L113.441 40.4V19.36L109.881 17V14.44L118.001 11.08H120.841V41.92L124.441 43.08L123.001 46Z" fill="#008FD1"/>
<path d="M10.7413 69.017V67.4545H21.6504V69.017H17.0765V82H15.3152V69.017H10.7413ZM24.3688 82V67.4545H29.2836C30.4199 67.4545 31.3527 67.6487 32.0819 68.0369C32.811 68.4205 33.3508 68.9484 33.7012 69.6207C34.0516 70.2931 34.2267 71.0578 34.2267 71.9148C34.2267 72.7718 34.0516 73.5317 33.7012 74.1946C33.3508 74.8575 32.8134 75.3783 32.089 75.7571C31.3645 76.1312 30.4389 76.3182 29.312 76.3182H25.3347V74.7273H29.2551C30.0317 74.7273 30.6567 74.6136 31.1301 74.3864C31.6084 74.1591 31.954 73.8371 32.1671 73.4205C32.3849 72.9991 32.4938 72.4972 32.4938 71.9148C32.4938 71.3324 32.3849 70.8234 32.1671 70.3878C31.9493 69.9522 31.6013 69.616 31.123 69.3793C30.6448 69.1378 30.0127 69.017 29.2267 69.017H26.1301V82H24.3688ZM31.2154 75.4659L34.7949 82H32.7495L29.2267 75.4659H31.2154ZM37.7583 82H35.9118L41.2527 67.4545H43.0708L48.4118 82H46.5652L42.2186 69.7557H42.1049L37.7583 82ZM38.4402 76.3182H45.8833V77.8807H38.4402V76.3182ZM58.6319 71.0909C58.5467 70.3712 58.2011 69.8125 57.595 69.4148C56.9889 69.017 56.2456 68.8182 55.3649 68.8182C54.7209 68.8182 54.1575 68.9223 53.6745 69.1307C53.1963 69.339 52.8223 69.6255 52.5524 69.9901C52.2872 70.3546 52.1547 70.7689 52.1547 71.233C52.1547 71.6212 52.247 71.955 52.4316 72.2344C52.621 72.509 52.8625 72.7386 53.1561 72.9233C53.4496 73.1032 53.7574 73.2524 54.0794 73.3707C54.4013 73.4844 54.6973 73.5767 54.9672 73.6477L56.4444 74.0455C56.8232 74.1449 57.2446 74.2822 57.7086 74.4574C58.1774 74.6326 58.6248 74.8717 59.051 75.1747C59.4818 75.473 59.8369 75.8565 60.1163 76.3253C60.3957 76.794 60.5353 77.3693 60.5353 78.0511C60.5353 78.8371 60.3294 79.5473 59.9174 80.1818C59.5102 80.8163 58.9136 81.3205 58.1277 81.6946C57.3464 82.0687 56.3971 82.2557 55.2797 82.2557C54.238 82.2557 53.336 82.0876 52.5737 81.7514C51.8161 81.4152 51.2195 80.9465 50.7839 80.3452C50.353 79.7438 50.1092 79.0455 50.0524 78.25H51.8706C51.9179 78.7992 52.1026 79.2538 52.4245 79.6136C52.7512 79.9687 53.1632 80.2339 53.6603 80.4091C54.1622 80.5795 54.702 80.6648 55.2797 80.6648C55.952 80.6648 56.5557 80.5559 57.0907 80.3381C57.6258 80.1155 58.0495 79.8078 58.362 79.4148C58.6745 79.017 58.8308 78.553 58.8308 78.0227C58.8308 77.5398 58.6958 77.1468 58.426 76.8438C58.1561 76.5407 57.801 76.2945 57.3606 76.1051C56.9203 75.9157 56.4444 75.75 55.9331 75.608L54.1433 75.0966C53.0069 74.7699 52.1073 74.3035 51.4444 73.6974C50.7815 73.0914 50.4501 72.2983 50.4501 71.3182C50.4501 70.5038 50.6703 69.7936 51.1106 69.1875C51.5557 68.5767 52.1523 68.1032 52.9004 67.767C53.6532 67.4261 54.4937 67.2557 55.4217 67.2557C56.3592 67.2557 57.1925 67.4238 57.9217 67.7599C58.6509 68.0914 59.2285 68.5459 59.6547 69.1236C60.0855 69.7012 60.3128 70.357 60.3365 71.0909H58.6319ZM63.4313 82V67.4545H68.3461C69.4872 67.4545 70.4199 67.6605 71.1444 68.0724C71.8735 68.4796 72.4133 69.0312 72.7637 69.7273C73.1141 70.4233 73.2892 71.1998 73.2892 72.0568C73.2892 72.9138 73.1141 73.6927 72.7637 74.3935C72.418 75.0942 71.883 75.6529 71.1586 76.0696C70.4341 76.4815 69.5061 76.6875 68.3745 76.6875H64.8517V75.125H68.3176C69.0989 75.125 69.7263 74.9901 70.1998 74.7202C70.6732 74.4503 71.0165 74.0857 71.2296 73.6264C71.4474 73.1624 71.5563 72.6392 71.5563 72.0568C71.5563 71.4744 71.4474 70.9536 71.2296 70.4943C71.0165 70.035 70.6709 69.6752 70.1926 69.4148C69.7144 69.1496 69.08 69.017 68.2892 69.017H65.1926V82H63.4313ZM88.3993 74.7273C88.3993 76.2614 88.1223 77.5871 87.5684 78.7045C87.0144 79.822 86.2544 80.6837 85.2885 81.2898C84.3226 81.8958 83.2194 82.1989 81.9789 82.1989C80.7383 82.1989 79.6351 81.8958 78.6692 81.2898C77.7033 80.6837 76.9434 79.822 76.3894 78.7045C75.8354 77.5871 75.5584 76.2614 75.5584 74.7273C75.5584 73.1932 75.8354 71.8674 76.3894 70.75C76.9434 69.6326 77.7033 68.7708 78.6692 68.1648C79.6351 67.5587 80.7383 67.2557 81.9789 67.2557C83.2194 67.2557 84.3226 67.5587 85.2885 68.1648C86.2544 68.7708 87.0144 69.6326 87.5684 70.75C88.1223 71.8674 88.3993 73.1932 88.3993 74.7273ZM86.6948 74.7273C86.6948 73.4678 86.4841 72.4048 86.0627 71.5384C85.646 70.6719 85.0802 70.0161 84.3652 69.571C83.655 69.1259 82.8596 68.9034 81.9789 68.9034C81.0982 68.9034 80.3004 69.1259 79.5854 69.571C78.8752 70.0161 78.3094 70.6719 77.888 71.5384C77.4713 72.4048 77.263 73.4678 77.263 74.7273C77.263 75.9867 77.4713 77.0497 77.888 77.9162C78.3094 78.7827 78.8752 79.4384 79.5854 79.8835C80.3004 80.3286 81.0982 80.5511 81.9789 80.5511C82.8596 80.5511 83.655 80.3286 84.3652 79.8835C85.0802 79.4384 85.646 78.7827 86.0627 77.9162C86.4841 77.0497 86.6948 75.9867 86.6948 74.7273ZM91.361 82V67.4545H96.2757C97.4121 67.4545 98.3449 67.6487 99.074 68.0369C99.8032 68.4205 100.343 68.9484 100.693 69.6207C101.044 70.2931 101.219 71.0578 101.219 71.9148C101.219 72.7718 101.044 73.5317 100.693 74.1946C100.343 74.8575 99.8056 75.3783 99.0811 75.7571C98.3567 76.1312 97.431 76.3182 96.3042 76.3182H92.3269V74.7273H96.2473C97.0239 74.7273 97.6489 74.6136 98.1223 74.3864C98.6006 74.1591 98.9462 73.8371 99.1593 73.4205C99.3771 72.9991 99.486 72.4972 99.486 71.9148C99.486 71.3324 99.3771 70.8234 99.1593 70.3878C98.9415 69.9522 98.5935 69.616 98.1152 69.3793C97.637 69.1378 97.0049 69.017 96.2189 69.017H93.1223V82H91.361ZM98.2076 75.4659L101.787 82H99.7417L96.2189 75.4659H98.2076ZM103.358 69.017V67.4545H114.268V69.017H109.694V82H107.932V69.017H103.358Z" fill="black"/>
<path d="M10.7413 69.017V67.4545H21.6504V69.017H17.0765V82H15.3152V69.017H10.7413ZM24.3688 82V67.4545H29.2836C30.4199 67.4545 31.3527 67.6487 32.0819 68.0369C32.811 68.4205 33.3508 68.9484 33.7012 69.6207C34.0516 70.2931 34.2267 71.0578 34.2267 71.9148C34.2267 72.7718 34.0516 73.5317 33.7012 74.1946C33.3508 74.8575 32.8134 75.3783 32.089 75.7571C31.3645 76.1312 30.4389 76.3182 29.312 76.3182H25.3347V74.7273H29.2551C30.0317 74.7273 30.6567 74.6136 31.1301 74.3864C31.6084 74.1591 31.954 73.8371 32.1671 73.4205C32.3849 72.9991 32.4938 72.4972 32.4938 71.9148C32.4938 71.3324 32.3849 70.8234 32.1671 70.3878C31.9493 69.9522 31.6013 69.616 31.123 69.3793C30.6448 69.1378 30.0127 69.017 29.2267 69.017H26.1301V82H24.3688ZM31.2154 75.4659L34.7949 82H32.7495L29.2267 75.4659H31.2154ZM37.7583 82H35.9118L41.2527 67.4545H43.0708L48.4118 82H46.5652L42.2186 69.7557H42.1049L37.7583 82ZM38.4402 76.3182H45.8833V77.8807H38.4402V76.3182ZM58.6319 71.0909C58.5467 70.3712 58.2011 69.8125 57.595 69.4148C56.9889 69.017 56.2456 68.8182 55.3649 68.8182C54.7209 68.8182 54.1575 68.9223 53.6745 69.1307C53.1963 69.339 52.8223 69.6255 52.5524 69.9901C52.2872 70.3546 52.1547 70.7689 52.1547 71.233C52.1547 71.6212 52.247 71.955 52.4316 72.2344C52.621 72.509 52.8625 72.7386 53.1561 72.9233C53.4496 73.1032 53.7574 73.2524 54.0794 73.3707C54.4013 73.4844 54.6973 73.5767 54.9672 73.6477L56.4444 74.0455C56.8232 74.1449 57.2446 74.2822 57.7086 74.4574C58.1774 74.6326 58.6248 74.8717 59.051 75.1747C59.4818 75.473 59.8369 75.8565 60.1163 76.3253C60.3957 76.794 60.5353 77.3693 60.5353 78.0511C60.5353 78.8371 60.3294 79.5473 59.9174 80.1818C59.5102 80.8163 58.9136 81.3205 58.1277 81.6946C57.3464 82.0687 56.3971 82.2557 55.2797 82.2557C54.238 82.2557 53.336 82.0876 52.5737 81.7514C51.8161 81.4152 51.2195 80.9465 50.7839 80.3452C50.353 79.7438 50.1092 79.0455 50.0524 78.25H51.8706C51.9179 78.7992 52.1026 79.2538 52.4245 79.6136C52.7512 79.9687 53.1632 80.2339 53.6603 80.4091C54.1622 80.5795 54.702 80.6648 55.2797 80.6648C55.952 80.6648 56.5557 80.5559 57.0907 80.3381C57.6258 80.1155 58.0495 79.8078 58.362 79.4148C58.6745 79.017 58.8308 78.553 58.8308 78.0227C58.8308 77.5398 58.6958 77.1468 58.426 76.8438C58.1561 76.5407 57.801 76.2945 57.3606 76.1051C56.9203 75.9157 56.4444 75.75 55.9331 75.608L54.1433 75.0966C53.0069 74.7699 52.1073 74.3035 51.4444 73.6974C50.7815 73.0914 50.4501 72.2983 50.4501 71.3182C50.4501 70.5038 50.6703 69.7936 51.1106 69.1875C51.5557 68.5767 52.1523 68.1032 52.9004 67.767C53.6532 67.4261 54.4937 67.2557 55.4217 67.2557C56.3592 67.2557 57.1925 67.4238 57.9217 67.7599C58.6509 68.0914 59.2285 68.5459 59.6547 69.1236C60.0855 69.7012 60.3128 70.357 60.3365 71.0909H58.6319ZM63.4313 82V67.4545H68.3461C69.4872 67.4545 70.4199 67.6605 71.1444 68.0724C71.8735 68.4796 72.4133 69.0312 72.7637 69.7273C73.1141 70.4233 73.2892 71.1998 73.2892 72.0568C73.2892 72.9138 73.1141 73.6927 72.7637 74.3935C72.418 75.0942 71.883 75.6529 71.1586 76.0696C70.4341 76.4815 69.5061 76.6875 68.3745 76.6875H64.8517V75.125H68.3176C69.0989 75.125 69.7263 74.9901 70.1998 74.7202C70.6732 74.4503 71.0165 74.0857 71.2296 73.6264C71.4474 73.1624 71.5563 72.6392 71.5563 72.0568C71.5563 71.4744 71.4474 70.9536 71.2296 70.4943C71.0165 70.035 70.6709 69.6752 70.1926 69.4148C69.7144 69.1496 69.08 69.017 68.2892 69.017H65.1926V82H63.4313ZM88.3993 74.7273C88.3993 76.2614 88.1223 77.5871 87.5684 78.7045C87.0144 79.822 86.2544 80.6837 85.2885 81.2898C84.3226 81.8958 83.2194 82.1989 81.9789 82.1989C80.7383 82.1989 79.6351 81.8958 78.6692 81.2898C77.7033 80.6837 76.9434 79.822 76.3894 78.7045C75.8354 77.5871 75.5584 76.2614 75.5584 74.7273C75.5584 73.1932 75.8354 71.8674 76.3894 70.75C76.9434 69.6326 77.7033 68.7708 78.6692 68.1648C79.6351 67.5587 80.7383 67.2557 81.9789 67.2557C83.2194 67.2557 84.3226 67.5587 85.2885 68.1648C86.2544 68.7708 87.0144 69.6326 87.5684 70.75C88.1223 71.8674 88.3993 73.1932 88.3993 74.7273ZM86.6948 74.7273C86.6948 73.4678 86.4841 72.4048 86.0627 71.5384C85.646 70.6719 85.0802 70.0161 84.3652 69.571C83.655 69.1259 82.8596 68.9034 81.9789 68.9034C81.0982 68.9034 80.3004 69.1259 79.5854 69.571C78.8752 70.0161 78.3094 70.6719 77.888 71.5384C77.4713 72.4048 77.263 73.4678 77.263 74.7273C77.263 75.9867 77.4713 77.0497 77.888 77.9162C78.3094 78.7827 78.8752 79.4384 79.5854 79.8835C80.3004 80.3286 81.0982 80.5511 81.9789 80.5511C82.8596 80.5511 83.655 80.3286 84.3652 79.8835C85.0802 79.4384 85.646 78.7827 86.0627 77.9162C86.4841 77.0497 86.6948 75.9867 86.6948 74.7273ZM91.361 82V67.4545H96.2757C97.4121 67.4545 98.3449 67.6487 99.074 68.0369C99.8032 68.4205 100.343 68.9484 100.693 69.6207C101.044 70.2931 101.219 71.0578 101.219 71.9148C101.219 72.7718 101.044 73.5317 100.693 74.1946C100.343 74.8575 99.8056 75.3783 99.0811 75.7571C98.3567 76.1312 97.431 76.3182 96.3042 76.3182H92.3269V74.7273H96.2473C97.0239 74.7273 97.6489 74.6136 98.1223 74.3864C98.6006 74.1591 98.9462 73.8371 99.1593 73.4205C99.3771 72.9991 99.486 72.4972 99.486 71.9148C99.486 71.3324 99.3771 70.8234 99.1593 70.3878C98.9415 69.9522 98.5935 69.616 98.1152 69.3793C97.637 69.1378 97.0049 69.017 96.2189 69.017H93.1223V82H91.361ZM98.2076 75.4659L101.787 82H99.7417L96.2189 75.4659H98.2076ZM103.358 69.017V67.4545H114.268V69.017H109.694V82H107.932V69.017H103.358Z" fill="black" fill-opacity="0.2"/>
</svg>
