<svg width="26" height="25" viewBox="0 0 26 25" fill="none" xmlns="http://www.w3.org/2000/svg">
<path fill-rule="evenodd" clip-rule="evenodd" d="M18.5776 23.1587C16.4733 22.6315 12.1655 21.1452 8.26018 17.2399C4.35486 13.3346 2.86856 9.02672 2.34135 6.92246C2.03836 5.71318 2.58395 4.54625 3.50907 3.88545L5.93434 2.15312C7.35337 1.13952 9.32743 1.48347 10.3201 2.91726L11.847 5.12274C12.4951 6.05893 12.2714 7.34204 11.345 8.00386L10.1275 8.8735C10.3117 9.57829 10.8848 11.0256 12.6796 12.8204C14.4744 14.6152 15.9218 15.1883 16.6265 15.3726L17.4962 14.1551C18.158 13.2285 19.4411 13.005 20.3773 13.6531L22.5828 15.18C24.0165 16.1726 24.3605 18.1467 23.347 19.5657L21.6146 21.9909C20.9538 22.9161 19.7869 23.4617 18.5776 23.1587ZM9.73332 15.7668C13.2848 19.3181 17.2039 20.6668 19.0839 21.1378C19.3587 21.2067 19.6909 21.0999 19.9194 20.7801L21.6517 18.3548C21.9896 17.8818 21.8749 17.2237 21.397 16.8929L19.1914 15.366L18.2582 16.6725C17.8769 17.2065 17.1715 17.6253 16.3503 17.4481C15.3253 17.2269 13.4305 16.5176 11.2064 14.2935C8.98241 12.0696 8.27313 10.1748 8.05197 9.14975C7.87478 8.32851 8.29357 7.6232 8.82751 7.24182L10.134 6.30859L8.60715 4.10311C8.27628 3.62518 7.61826 3.51053 7.14525 3.8484L4.71999 5.58073C4.40015 5.80918 4.29337 6.14136 4.36222 6.41614C4.83324 8.29608 6.18188 12.2153 9.73332 15.7668Z" fill="white"/>
<path d="M24.4583 7.29167C24.4583 7.86696 23.992 8.33333 23.4167 8.33333C22.8413 8.33333 22.375 7.86696 22.375 7.29167V4.59814L17.9183 9.05484C17.5114 9.46165 16.852 9.46164 16.4451 9.05484C16.0383 8.64805 16.0383 7.9885 16.4451 7.58171L20.9019 3.125H18.2083C17.633 3.125 17.1667 2.65863 17.1667 2.08333C17.1667 1.50804 17.633 1.04167 18.2083 1.04167H22.375C23.5256 1.04167 24.4583 1.97441 24.4583 3.125V7.29167Z" fill="white"/>
</svg>
